{
	"asset":{
		"generator":"Khronos glTF Blender I/O v4.2.60",
		"version":"2.0"
	},
	"extensionsUsed":[
		"KHR_materials_specular",
		"KHR_materials_ior"
	],
	"scene":0,
	"scenes":[
		{
			"name":"Scene",
			"nodes":[
				0,
				1,
				2,
				3,
				4
			]
		}
	],
	"nodes":[
		{
			"mesh":0,
			"name":"picture_canvas_anomaly"
		},
		{
			"mesh":1,
			"name":"sword_anomaly"
		},
		{
			"mesh":2,
			"name":"chair_outside_anomaly"
		},
		{
			"mesh":3,
			"name":"chair_outside_shadow_anomaly"
		},
		{
			"mesh":4,
			"name":"floor_none_anomaly"
		}
	],
	"materials":[
		{
			"extensions":{
				"KHR_materials_specular":{
					"specularFactor":0.6000000238418579
				},
				"KHR_materials_ior":{
					"ior":1.4500000476837158
				}
			},
			"name":"picture_canvas_anomaly",
			"pbrMetallicRoughness":{
				"baseColorTexture":{
					"index":0
				},
				"metallicFactor":0,
				"metallicRoughnessTexture":{
					"index":1
				}
			}
		},
		{
			"extensions":{
				"KHR_materials_specular":{
					"specularFactor":0.6000000238418579
				},
				"KHR_materials_ior":{
					"ior":1.4500000476837158
				}
			},
			"name":"sword_anomaly",
			"normalTexture":{
				"index":2
			},
			"pbrMetallicRoughness":{
				"baseColorTexture":{
					"index":3
				},
				"metallicRoughnessTexture":{
					"index":4
				}
			}
		},
		{
			"extensions":{
				"KHR_materials_specular":{
					"specularFactor":0.6000000238418579
				},
				"KHR_materials_ior":{
					"ior":1.4500000476837158
				}
			},
			"name":"chair_outside_anomaly",
			"normalTexture":{
				"index":5
			},
			"pbrMetallicRoughness":{
				"baseColorTexture":{
					"index":6
				},
				"metallicRoughnessTexture":{
					"index":7
				}
			}
		},
		{
			"alphaMode":"BLEND",
			"doubleSided":true,
			"name":"chair_outside_shadow_anomaly",
			"pbrMetallicRoughness":{
				"baseColorFactor":[
					0,
					0,
					0,
					1
				],
				"baseColorTexture":{
					"index":8
				},
				"metallicFactor":0
			}
		},
		{
			"doubleSided":true,
			"name":"floor_none_anomaly",
			"pbrMetallicRoughness":{
				"baseColorFactor":[
					0,
					0,
					0,
					1
				],
				"metallicFactor":0
			}
		}
	],
	"meshes":[
		{
			"name":"picture_canvas_01.003",
			"primitives":[
				{
					"attributes":{
						"POSITION":0,
						"NORMAL":1,
						"TEXCOORD_0":2,
						"TEXCOORD_1":3
					},
					"indices":4,
					"material":0
				}
			]
		},
		{
			"name":"sword_lp_base.002",
			"primitives":[
				{
					"attributes":{
						"POSITION":5,
						"NORMAL":6,
						"TEXCOORD_0":7,
						"TEXCOORD_1":8
					},
					"indices":9,
					"material":1
				}
			]
		},
		{
			"name":"chair_1.002",
			"primitives":[
				{
					"attributes":{
						"POSITION":10,
						"NORMAL":11,
						"TEXCOORD_0":12,
						"TEXCOORD_1":13
					},
					"indices":14,
					"material":2
				}
			]
		},
		{
			"name":"chair_1.009",
			"primitives":[
				{
					"attributes":{
						"POSITION":15,
						"NORMAL":16,
						"TEXCOORD_0":17
					},
					"indices":18,
					"material":3
				}
			]
		},
		{
			"name":"Plane.003",
			"primitives":[
				{
					"attributes":{
						"POSITION":19,
						"NORMAL":20,
						"TEXCOORD_0":21
					},
					"indices":22,
					"material":4
				}
			]
		}
	],
	"textures":[
		{
			"sampler":0,
			"source":0
		},
		{
			"sampler":0,
			"source":1
		},
		{
			"sampler":0,
			"source":2
		},
		{
			"sampler":0,
			"source":3
		},
		{
			"sampler":0,
			"source":4
		},
		{
			"sampler":0,
			"source":5
		},
		{
			"sampler":0,
			"source":6
		},
		{
			"sampler":0,
			"source":7
		},
		{
			"sampler":0,
			"source":8
		}
	],
	"images":[
		{
			"mimeType":"image/jpeg",
			"name":"picture_canvas_anomaly_low_Bake1_PBR StoA_Diffuse",
			"uri":"picture_canvas_anomaly_low_Bake1_PBR%20StoA_Diffuse.jpg"
		},
		{
			"mimeType":"image/jpeg",
			"name":"picture_canvas_anomaly_low_Bake1_PBR StoA_Roughness",
			"uri":"picture_canvas_anomaly_low_Bake1_PBR%20StoA_Roughness.jpg"
		},
		{
			"mimeType":"image/jpeg",
			"name":"sword_normal",
			"uri":"sword_normal.jpg"
		},
		{
			"mimeType":"image/jpeg",
			"name":"sword_color",
			"uri":"sword_color.jpg"
		},
		{
			"mimeType":"image/jpeg",
			"name":"sword_metallic-sword_roughness",
			"uri":"sword_metallic-sword_roughness.jpg"
		},
		{
			"mimeType":"image/jpeg",
			"name":"chair_Bake1_AutoMatch_Normal",
			"uri":"chair_Bake1_AutoMatch_Normal.jpg"
		},
		{
			"mimeType":"image/jpeg",
			"name":"chair_Bake1_AutoMatch_Diffuse",
			"uri":"chair_Bake1_AutoMatch_Diffuse.jpg"
		},
		{
			"mimeType":"image/jpeg",
			"name":"chair_Bake1_AutoMatch_Metalness-chair_Bake1_AutoMatch_Roughness",
			"uri":"chair_Bake1_AutoMatch_Metalness-chair_Bake1_AutoMatch_Roughness.jpg"
		},
		{
			"mimeType":"image/png",
			"name":"chair_outside_anomaly_shadow_low_Bake1_AutoMatch_Alpha",
			"uri":"chair_outside_anomaly_shadow_low_Bake1_AutoMatch_Alpha.png"
		}
	],
	"accessors":[
		{
			"bufferView":0,
			"componentType":5126,
			"count":4,
			"max":[
				-1.4204626083374023,
				3.7099595069885254,
				-16.93000030517578
			],
			"min":[
				-1.4295375347137451,
				3.1900386810302734,
				-17.3700008392334
			],
			"type":"VEC3"
		},
		{
			"bufferView":1,
			"componentType":5126,
			"count":4,
			"type":"VEC3"
		},
		{
			"bufferView":2,
			"componentType":5126,
			"count":4,
			"type":"VEC2"
		},
		{
			"bufferView":3,
			"componentType":5126,
			"count":4,
			"type":"VEC2"
		},
		{
			"bufferView":4,
			"componentType":5123,
			"count":6,
			"type":"SCALAR"
		},
		{
			"bufferView":5,
			"componentType":5126,
			"count":629,
			"max":[
				-1.409999966621399,
				5.850000381469727,
				-10.375998497009277
			],
			"min":[
				-3.2220005989074707,
				3.3715007305145264,
				-12.350000381469727
			],
			"type":"VEC3"
		},
		{
			"bufferView":6,
			"componentType":5126,
			"count":629,
			"type":"VEC3"
		},
		{
			"bufferView":7,
			"componentType":5126,
			"count":629,
			"type":"VEC2"
		},
		{
			"bufferView":8,
			"componentType":5126,
			"count":629,
			"type":"VEC2"
		},
		{
			"bufferView":9,
			"componentType":5123,
			"count":1452,
			"type":"SCALAR"
		},
		{
			"bufferView":10,
			"componentType":5126,
			"count":862,
			"max":[
				0.9032955765724182,
				1.2937512397766113,
				-3.6298537254333496
			],
			"min":[
				0.2292819619178772,
				0,
				-4.36985445022583
			],
			"type":"VEC3"
		},
		{
			"bufferView":11,
			"componentType":5126,
			"count":862,
			"type":"VEC3"
		},
		{
			"bufferView":12,
			"componentType":5126,
			"count":862,
			"type":"VEC2"
		},
		{
			"bufferView":13,
			"componentType":5126,
			"count":862,
			"type":"VEC2"
		},
		{
			"bufferView":14,
			"componentType":5123,
			"count":2070,
			"type":"SCALAR"
		},
		{
			"bufferView":15,
			"componentType":5126,
			"count":8,
			"max":[
				0.996999979019165,
				1.5,
				-3.3000001907348633
			],
			"min":[
				0,
				0.003000000026077032,
				-4.699999809265137
			],
			"type":"VEC3"
		},
		{
			"bufferView":16,
			"componentType":5126,
			"count":8,
			"type":"VEC3"
		},
		{
			"bufferView":17,
			"componentType":5126,
			"count":8,
			"type":"VEC2"
		},
		{
			"bufferView":18,
			"componentType":5123,
			"count":12,
			"type":"SCALAR"
		},
		{
			"bufferView":19,
			"componentType":5126,
			"count":20,
			"max":[
				-1.399999976158142,
				0,
				-2
			],
			"min":[
				-5.399999618530273,
				-0.5,
				-18
			],
			"type":"VEC3"
		},
		{
			"bufferView":20,
			"componentType":5126,
			"count":20,
			"type":"VEC3"
		},
		{
			"bufferView":21,
			"componentType":5126,
			"count":20,
			"type":"VEC2"
		},
		{
			"bufferView":22,
			"componentType":5123,
			"count":30,
			"type":"SCALAR"
		}
	],
	"bufferViews":[
		{
			"buffer":0,
			"byteLength":48,
			"byteOffset":0,
			"target":34962
		},
		{
			"buffer":0,
			"byteLength":48,
			"byteOffset":48,
			"target":34962
		},
		{
			"buffer":0,
			"byteLength":32,
			"byteOffset":96,
			"target":34962
		},
		{
			"buffer":0,
			"byteLength":32,
			"byteOffset":128,
			"target":34962
		},
		{
			"buffer":0,
			"byteLength":12,
			"byteOffset":160,
			"target":34963
		},
		{
			"buffer":0,
			"byteLength":7548,
			"byteOffset":172,
			"target":34962
		},
		{
			"buffer":0,
			"byteLength":7548,
			"byteOffset":7720,
			"target":34962
		},
		{
			"buffer":0,
			"byteLength":5032,
			"byteOffset":15268,
			"target":34962
		},
		{
			"buffer":0,
			"byteLength":5032,
			"byteOffset":20300,
			"target":34962
		},
		{
			"buffer":0,
			"byteLength":2904,
			"byteOffset":25332,
			"target":34963
		},
		{
			"buffer":0,
			"byteLength":10344,
			"byteOffset":28236,
			"target":34962
		},
		{
			"buffer":0,
			"byteLength":10344,
			"byteOffset":38580,
			"target":34962
		},
		{
			"buffer":0,
			"byteLength":6896,
			"byteOffset":48924,
			"target":34962
		},
		{
			"buffer":0,
			"byteLength":6896,
			"byteOffset":55820,
			"target":34962
		},
		{
			"buffer":0,
			"byteLength":4140,
			"byteOffset":62716,
			"target":34963
		},
		{
			"buffer":0,
			"byteLength":96,
			"byteOffset":66856,
			"target":34962
		},
		{
			"buffer":0,
			"byteLength":96,
			"byteOffset":66952,
			"target":34962
		},
		{
			"buffer":0,
			"byteLength":64,
			"byteOffset":67048,
			"target":34962
		},
		{
			"buffer":0,
			"byteLength":24,
			"byteOffset":67112,
			"target":34963
		},
		{
			"buffer":0,
			"byteLength":240,
			"byteOffset":67136,
			"target":34962
		},
		{
			"buffer":0,
			"byteLength":240,
			"byteOffset":67376,
			"target":34962
		},
		{
			"buffer":0,
			"byteLength":160,
			"byteOffset":67616,
			"target":34962
		},
		{
			"buffer":0,
			"byteLength":60,
			"byteOffset":67776,
			"target":34963
		}
	],
	"samplers":[
		{
			"magFilter":9729,
			"minFilter":9987
		}
	],
	"buffers":[
		{
			"byteLength":67836,
			"uri":"anomaly.bin"
		}
	]
}
